#N canvas 637 103 450 499 10;
#X msg 105 63 listen 0;
#X floatatom 119 91 5 0 0 0 - - -, f 5;
#X msg 119 113 send foo \$1;
#X obj 105 198 route x y;
#X obj 143 255 osc~;
#X obj 105 256 osc~;
#X obj 105 315 dac~;
#X obj 31 257 print tcp;
#X obj 105 167 netreceive 3001;
#X msg 105 41 listen 3001;
#X connect 0 0 8 0;
#X connect 1 0 2 0;
#X connect 2 0 8 0;
#X connect 3 0 5 0;
#X connect 3 1 4 0;
#X connect 4 0 6 1;
#X connect 5 0 6 0;
#X connect 8 0 3 0;
#X connect 8 0 7 0;
#X connect 9 0 8 0;
